<svg width="664" height="705" viewBox="0 0 664 705" fill="none" xmlns="http://www.w3.org/2000/svg">
<g opacity="0.1" filter="url(#filter0_d_295_3724)">
<path d="M607.641 190.407C629.126 233.268 612.734 285.261 613.641 333.56C614.464 377.335 634.091 424.944 612.774 463.53C590.728 503.439 539.665 515.54 500.404 538.54C470.695 555.944 437.622 564.572 408.604 583.135C375.999 603.993 357.044 653.456 318.695 654.783C280.146 656.118 264.022 593.349 225.736 589.465C168.026 583.61 101.679 664.797 57.0238 628.237C15.5138 594.251 73.6836 522.42 77.6857 468.252C80.2061 434.139 76.3666 401.08 76.3308 366.918C76.2925 330.446 73.1112 294.967 77.466 258.68C83.1897 210.989 78.481 158.459 106.099 118.873C133.824 79.1346 181.694 56.614 227.904 43.0542C274.516 29.3763 324.261 30.8397 371.334 41.0431C417.46 51.041 457.518 76.3075 497.286 101.444C537.674 126.972 586.163 147.562 607.641 190.407Z" fill="#1BD5E1"/>
</g>
<defs>
<filter id="filter0_d_295_3724" x="0.901627" y="0.0875607" width="663.026" height="704.223" filterUnits="userSpaceOnUse" color-interpolation-filters="sRGB">
<feFlood flood-opacity="0" result="BackgroundImageFix"/>
<feColorMatrix in="SourceAlpha" type="matrix" values="0 0 0 0 0 0 0 0 0 0 0 0 0 0 0 0 0 0 127 0" result="hardAlpha"/>
<feOffset dy="8.25112"/>
<feGaussianBlur stdDeviation="20.6278"/>
<feComposite in2="hardAlpha" operator="out"/>
<feColorMatrix type="matrix" values="0 0 0 0 0 0 0 0 0 0 0 0 0 0 0 0 0 0 0.25 0"/>
<feBlend mode="normal" in2="BackgroundImageFix" result="effect1_dropShadow_295_3724"/>
<feBlend mode="normal" in="SourceGraphic" in2="effect1_dropShadow_295_3724" result="shape"/>
</filter>
</defs>
</svg>
