<svg width="693" height="589" viewBox="0 0 693 589" fill="none" xmlns="http://www.w3.org/2000/svg">
<path opacity="0.2" d="M224.793 456.268C205.989 428.72 188.66 400.187 162.006 378.726C116.765 342.299 42.001 336.077 14.6831 287.096C-9.28794 244.115 -1.76717 180.731 34.646 150.367C77.3626 114.747 152.78 144.738 207.469 126.338C239.086 115.7 255.861 85.5233 282.443 66.9945C316.67 43.1367 343.393 -5.40018 387.67 0.730593C432.838 6.98458 443.523 71.1989 482.739 94.7278C518.496 116.181 568.799 104.207 601.865 129.243C635.175 154.464 653.261 194.046 663.881 231.88C674.437 269.488 658.861 306.781 662.44 345.049C667.019 394.02 706.424 445.183 687.995 489.761C670.362 532.411 616.141 551.443 570.218 568.119C526.918 583.843 478.478 581.815 430.966 583.098C385.817 584.317 335.324 599.503 296.327 575.513C254.843 549.993 251.374 495.21 224.793 456.268Z" fill="#FFB640"/>
</svg>
