<svg width="551" height="506" viewBox="0 0 551 506" fill="none" xmlns="http://www.w3.org/2000/svg">
<path opacity="0.2" d="M223.153 18.3284C260.074 14.579 284.558 3.47163 320 18.3283C357.953 34.238 356.459 61.8992 389.229 87.9456C421.391 113.509 472.6 94.2143 503.209 121.79C532.738 148.391 536.372 193.256 548.243 231.198C561.814 274.574 510.084 325.871 503.209 369.5C496.291 413.407 548.181 450.993 510.456 470.995C471.127 491.847 420.938 468.389 375.626 469.68C344.061 470.58 313.432 472.143 282.571 477.489C244.311 484.116 210.415 507.629 171.106 505.106C126.472 502.241 74.6627 496.572 42.8638 462.103C11.2752 427.862 9.71445 374.644 8.56831 328.923C7.54695 288.179 37.6302 254.406 36.636 213.663C35.498 167.026 -10.96 121.201 2.43681 77.652C15.0916 36.5151 60.8495 13.9253 101.437 3.01636C140.464 -7.47329 182.628 22.4438 223.153 18.3284Z" fill="#FF9D00"/>
</svg>
