<svg width="602" height="547" viewBox="0 0 602 547" fill="none" xmlns="http://www.w3.org/2000/svg">
<path opacity="0.2" d="M408.312 65.1375C418.293 68.5001 429.115 69.406 439.929 69.3756C447.555 69.3541 455.416 68.858 463.062 68.3755C466.191 68.1781 469.284 67.9829 472.31 67.8235C493.767 66.6928 511.987 67.4133 524.346 78.6731C537.168 90.354 540.029 106.259 539.733 124.646C539.618 131.779 539.038 139.065 538.444 146.505C538.272 148.673 538.098 150.855 537.934 153.049C537.217 162.66 536.705 172.437 537.504 181.771C538.392 192.162 537.515 202.528 536.606 213.268C536.365 216.117 536.121 218.992 535.908 221.9C534.908 235.542 534.616 249.681 539.124 263.645C542.392 273.769 547.986 283.065 554.314 291.814C558.786 297.997 563.761 304.083 568.616 310.023C570.587 312.433 572.537 314.819 574.427 317.179C587.834 333.918 598.365 349.599 597.64 367.557C596.958 384.462 587.755 399.497 574.802 414.202C568.352 421.526 561.102 428.626 553.713 435.752C552.853 436.581 551.992 437.41 551.129 438.241C544.619 444.507 538.064 450.817 532.094 457.201C524.928 464.863 518.098 473.216 511.327 481.497C510.994 481.904 510.662 482.31 510.33 482.716C503.195 491.44 496.096 500.059 488.533 507.968C473.42 523.773 456.789 536.373 435.278 540.789C413.45 545.27 392.236 539.338 370.261 530.431C363.895 527.85 357.42 524.994 350.859 522.099C335.172 515.18 318.991 508.041 302.617 503.931C288.291 500.335 273.156 498.514 258.418 496.741C252.798 496.065 247.236 495.396 241.798 494.638C221.819 491.852 203.158 487.851 187.229 478.277C171.642 468.909 161.838 454.78 152.285 439.195C151.03 437.148 149.778 435.071 148.515 432.977C140.309 419.369 131.675 405.052 119.189 393.567C105.501 380.976 87.5393 371.817 70.3932 363.074C66.4823 361.08 62.6138 359.107 58.8482 357.12C38.1115 346.179 20.3761 334.796 11.7908 317.192C3.32563 299.834 2.86655 280.739 6.41479 260.96C9.86001 241.755 16.9948 222.333 23.8516 203.668C24.0782 203.051 24.3045 202.435 24.5303 201.82C38.1155 164.818 54.126 125.526 89.7673 105.633C107.627 95.6652 129.739 96.6904 153.696 98.2741C154.511 98.3279 155.328 98.3825 156.147 98.4371C178.792 99.9485 202.94 101.56 223.464 91.9704C234.027 87.0348 241.868 79.0733 248.331 70.161C253.703 62.7526 258.285 54.4432 262.671 46.4895C263.519 44.9514 264.359 43.4266 265.197 41.9242C275.826 22.8615 286.004 7.5174 305.259 4.75161C324.04 2.05376 339.048 12.4987 355.155 26.7426C357.694 28.988 360.276 31.3418 362.897 33.731C368.363 38.7134 373.998 43.8498 379.764 48.479C388.383 55.3999 397.737 61.5743 408.312 65.1375Z" fill="#129AA3" stroke="#129AA3" stroke-width="8.64943"/>
</svg>
