<svg width="182" height="129" viewBox="0 0 182 129" fill="none" xmlns="http://www.w3.org/2000/svg">
<path opacity="0.2" fill-rule="evenodd" clip-rule="evenodd" d="M150.225 108C151.312 101.297 157.353 100.107 162.936 97.7764C167.929 95.6892 173.145 92.7358 177.005 88.9795C181.727 84.3871 183.895 77.7313 179.95 72.0159C178.472 69.8743 176.517 68.0131 174.343 66.5529C172.608 65.3886 170.682 64.5526 168.654 64.0156C152.148 59.6397 148.351 82.7145 132.744 80.8576C123.2 79.7221 117.017 71.2143 111.542 64.4199C106.312 57.9289 100.107 52.0177 92.1464 48.8956C82.9735 45.2993 74.4198 50.65 65.8146 53.4547C60.7817 55.0951 55.5376 55.8577 50.2335 55.5615C37.5855 54.8557 37.6996 38.2079 26.1186 32.7119C2.4631 21.4847 -9.78548 47.5553 9.59602 66.3361C15.1511 71.7195 22.9317 75.7628 27.18 82.3695C32.3015 90.3385 31.0775 98.5783 30.0703 107.455L150.225 108Z" fill="url(#paint0_linear_424_4768)"/>
<circle cx="90.5" cy="64.5" r="64.5" fill="url(#paint1_linear_424_4768)"/>
<path d="M130.142 82.6716V44.2913C131.708 44.2913 133.21 44.9134 134.317 46.0208C135.425 47.1281 136.047 48.63 136.047 50.196V91.5286C136.047 93.0946 135.425 94.5965 134.317 95.7038C133.21 96.8111 131.708 97.4332 130.142 97.4332H102.449C107.98 93.5914 114.552 91.5312 121.285 91.5286C123.634 91.5286 125.887 90.5954 127.548 88.9344C129.209 87.2734 130.142 85.0206 130.142 82.6716ZM53.3817 44.2913V82.6716C53.3817 85.0206 54.3148 87.2734 55.9758 88.9344C57.6368 90.5954 59.8896 91.5286 62.2387 91.5286C68.9723 91.5312 75.5444 93.5914 81.0745 97.4332H53.3817C51.8157 97.4332 50.3138 96.8111 49.2065 95.7038C48.0991 94.5965 47.477 93.0946 47.477 91.5286V50.196C47.477 48.63 48.0991 47.1281 49.2065 46.0208C50.3138 44.9134 51.8157 44.2913 53.3817 44.2913Z" fill="white"/>
<path d="M121.957 32.8363C122.74 32.8363 123.491 33.1474 124.045 33.701C124.598 34.2547 124.909 35.0056 124.909 35.7886V83.0259C124.909 83.8089 124.598 84.5598 124.045 85.1135C123.491 85.6672 122.74 85.9782 121.957 85.9782C113.075 85.9875 104.458 89.0054 97.5118 94.54L95.3861 96.2523V33.3677C96.3329 33.024 97.3313 32.8443 98.3385 32.8363H121.957ZM59.9582 83.0259V35.7886C59.9582 35.0056 60.2692 34.2547 60.8229 33.701C61.3766 33.1474 62.1275 32.8363 62.9105 32.8363H86.5292C87.5363 32.8443 88.5347 33.024 89.4815 33.3677V96.2523L87.3558 94.54C80.4091 89.0054 71.7924 85.9875 62.9105 85.9782C62.1275 85.9782 61.3766 85.6672 60.8229 85.1135C60.2692 84.5598 59.9582 83.8089 59.9582 83.0259Z" fill="white"/>
<defs>
<linearGradient id="paint0_linear_424_4768" x1="182" y1="69" x2="-5.04082" y2="69" gradientUnits="userSpaceOnUse">
<stop stop-color="#FFB640"/>
<stop offset="1" stop-color="#FF9D00"/>
</linearGradient>
<linearGradient id="paint1_linear_424_4768" x1="155" y1="65.9333" x2="26" y2="65.9333" gradientUnits="userSpaceOnUse">
<stop stop-color="#129AA3"/>
<stop offset="1" stop-color="#1BD5E1"/>
</linearGradient>
</defs>
</svg>
