<svg width="184" height="144" viewBox="0 0 184 144" fill="none" xmlns="http://www.w3.org/2000/svg">
<g clip-path="url(#clip0_164_3851)">
<path fill-rule="evenodd" clip-rule="evenodd" d="M145.691 32.5608L149.419 38.1161L150.853 17.0537L132.898 29.9933L138.197 30.003L130.096 42.555L78.6313 28.2768C78.1417 28.1413 77.6302 28.1042 77.1262 28.1675C76.6223 28.2308 76.1358 28.3932 75.695 28.6455C75.2541 28.8978 74.8676 29.2349 74.5577 29.6374C74.2478 30.0398 74.0208 30.4997 73.8896 30.9904L67.5244 54.8872L57.0121 56.4832C56.3029 56.5913 55.638 56.8953 55.0924 57.3612C54.5468 57.827 54.1422 58.4361 53.9244 59.1196L46.1527 83.5821C45.5113 85.6024 46.63 87.7649 48.6513 88.4064C50.6728 89.0482 52.8373 87.9277 53.4787 85.9074L60.5268 63.7213L71.1616 62.1079C71.9014 61.9951 72.5923 61.6691 73.1499 61.1699C73.7074 60.6707 74.1074 60.0199 74.301 59.297L80.3174 36.7182L130.765 50.7145C131.554 50.9334 132.393 50.8943 133.159 50.603C133.925 50.3116 134.578 49.7832 135.022 49.0949L145.691 32.5608Z" fill="#EEEEEE"/>
<path fill-rule="evenodd" clip-rule="evenodd" d="M32.7527 133.579C31.6653 125.279 25.6229 123.805 20.0372 120.92C15.0424 118.335 9.82484 114.678 5.96308 110.027C1.23936 104.34 -0.929828 96.0985 3.01755 89.0214C4.49603 86.3694 6.45118 84.0648 8.62609 82.2567C10.3615 80.815 12.288 79.7798 14.3174 79.1149C30.829 73.6964 34.628 102.269 50.2405 99.9697C59.7879 98.5636 65.973 88.0288 71.4502 79.6155C76.682 71.578 82.8899 64.2584 90.8531 60.3924C100.029 55.9392 108.586 62.5648 117.195 66.0378C122.23 68.069 127.476 69.0132 132.782 68.6465C145.434 67.7725 145.32 47.1582 156.905 40.3527C180.57 26.4504 192.823 58.7327 173.434 81.9883C167.877 88.6543 160.094 93.661 155.844 101.842C150.72 111.71 151.945 121.913 152.952 132.904L32.7527 133.579Z" fill="#EEEEEE"/>
<path fill-rule="evenodd" clip-rule="evenodd" d="M35.1465 132.885C34.9866 130.815 34.2957 128.755 33.6411 126.8C31.8944 121.596 29.3783 116.923 24.9195 113.567C22.7534 111.937 19.8151 110.411 17.0064 110.796C15.676 110.978 14.1918 111.746 14.2581 113.284C14.3728 116.033 17.6701 118.181 19.6854 119.517C24.6088 122.785 33.7497 126.323 35.1465 132.885Z" fill="#6993A4"/>
<path fill-rule="evenodd" clip-rule="evenodd" d="M15.4665 109.382C15.0895 110.321 15.249 111.434 15.4447 112.395C15.6187 113.261 15.8616 114.142 16.3074 114.91C17.9239 117.687 21.3238 118.854 24.3322 119.31C25.6914 119.517 27.8698 119.655 28.9354 118.538C29.6676 117.77 29.1384 117.031 29.0949 116.168C29.084 115.94 29.2652 115.885 29.4573 115.943C30.4976 116.248 31.3892 117.73 31.9474 118.553C33.622 121.036 34.6912 124.04 35.1334 126.994C35.2893 128.035 35.5212 129.488 34.8507 130.409C34.0098 131.565 32.096 130.681 31.121 130.224C30.8383 130.09 30.5556 129.948 30.2765 129.803C29.9539 129.637 29.6313 129.463 29.316 129.289C28.8194 129.017 28.3337 128.727 27.8516 128.437C24.9048 126.675 10.8234 119.357 8.96762 115.896C7.0321 112.282 12.121 110.608 15.4665 109.382Z" fill="#477282"/>
<path fill-rule="evenodd" clip-rule="evenodd" d="M36.6606 132.885C36.8205 130.815 37.5114 128.755 38.166 126.8C39.9128 121.596 42.4288 116.923 46.8876 113.567C49.0537 111.937 51.992 110.411 54.8007 110.796C56.1311 110.978 57.6154 111.746 57.549 113.284C57.4344 116.033 54.137 118.181 52.1218 119.517C47.1983 122.785 38.0574 126.323 36.6606 132.885Z" fill="#6993A4"/>
<path fill-rule="evenodd" clip-rule="evenodd" d="M56.3406 109.382C56.7176 110.321 56.5581 111.434 56.3624 112.395C56.1884 113.261 55.9456 114.142 55.4998 114.91C53.8832 117.687 50.4833 118.854 47.4749 119.31C46.1157 119.517 43.9373 119.655 42.8717 118.538C42.1396 117.77 42.6688 117.031 42.7123 116.168C42.7231 115.94 42.5419 115.885 42.3498 115.943C41.3096 116.248 40.4179 117.73 39.8597 118.553C38.1852 121.036 37.1159 124.04 36.6737 126.994C36.5179 128.035 36.2859 129.488 36.9564 130.409C37.7973 131.565 39.7111 130.681 40.6861 130.224C40.9689 130.09 41.2516 129.948 41.5306 129.803C41.8532 129.637 42.1758 129.463 42.4912 129.289C42.9877 129.017 43.4734 128.727 43.9555 128.437C46.9023 126.675 60.9837 119.357 62.8395 115.896C64.775 112.282 59.6861 110.608 56.3406 109.382Z" fill="#477282"/>
<path fill-rule="evenodd" clip-rule="evenodd" d="M34.488 131.861C34.5921 127.964 34.8362 123.77 34.388 119.748C33.9597 115.94 32.9112 112.284 30.402 109.247C27.6846 105.953 23.8107 103.887 20.3409 101.485C16.479 98.8087 13.0973 95.7456 11.7966 90.6951C11.4004 89.1727 11.2524 87.5899 11.4044 86.0246C11.5685 84.3558 12.1208 82.7466 12.8612 81.2421C13.2174 80.5171 14.0978 80.2192 14.8222 80.5766C15.5465 80.9341 15.8467 81.8129 15.4865 82.5375C14.9022 83.7266 14.45 84.9936 14.3179 86.3128C14.1979 87.5366 14.3219 88.7732 14.6301 89.9635C15.7426 94.266 18.7161 96.798 22.0097 99.0778C25.6956 101.631 29.7736 103.882 32.6631 107.382C38.2779 114.188 37.6376 123.677 37.4175 131.939C37.3934 132.749 36.7211 133.388 35.9127 133.364C35.1043 133.345 34.468 132.671 34.488 131.861Z" fill="#6993A4"/>
<path fill-rule="evenodd" clip-rule="evenodd" d="M19.3196 78.505C17.0974 80.3246 16.2448 91.5139 14.6398 93.8534C14.2591 94.4134 13.6732 96.6047 12.9075 96.7301C12.3155 96.8259 11.8085 95.9658 11.5574 95.5664C10.6624 94.1541 10.1688 92.4395 9.74084 90.8414C8.62715 86.7195 8.01344 81.7544 9.26574 77.6012C9.47476 76.8996 9.75807 76.1927 10.1521 75.5732C11.8818 72.8713 15.0361 74.231 16.9322 75.9236C17.8077 76.7075 18.583 77.5886 19.3196 78.505Z" fill="#477282"/>
<path d="M16.9981 89.7183C9.40774 89.7183 3.25449 83.5651 3.25449 75.9747C3.25449 68.3843 9.40774 62.2311 16.9981 62.2311C24.5885 62.2311 30.7417 68.3843 30.7417 75.9747C30.7417 83.5651 24.5885 89.7183 16.9981 89.7183Z" fill="#F29F05"/>
<path fill-rule="evenodd" clip-rule="evenodd" d="M5.79414 65.2063C4.42405 71.9698 4.86266 80.1432 11.039 84.4529C12.2192 85.271 13.5073 85.9212 14.8665 86.3848C18.2809 87.5519 22.3767 87.5338 25.6533 85.9462C26.6174 85.4823 27.5345 84.8915 28.3138 84.1557C28.8031 83.6954 29.2888 82.9269 29.8977 82.6261C30.503 82.3252 30.6697 83.0937 30.6335 83.5286C30.503 85.1669 29.3939 86.7907 28.3971 88.0231C24.5623 92.7677 18.2301 94.1596 12.5105 92.311C2.64801 89.125 -2.51342 74.2098 5.79414 65.2063Z" fill="#D98A00"/>
<path d="M19.7546 77.8622C19.5011 77.4231 19.1777 77.1435 18.7834 77.0249C18.3904 76.9053 17.8381 76.9045 17.1265 77.0224C16.4164 77.1395 15.7866 77.2121 15.2384 77.2392C14.6888 77.2673 14.1822 77.2277 13.7169 77.1213C13.255 77.0157 12.8197 76.8167 12.4376 76.5365C12.0486 76.2541 11.7033 75.8499 11.4001 75.3248C10.8774 74.4194 10.7384 73.5104 10.9832 72.5976C11.2279 71.6848 11.8008 70.9042 12.7047 70.2536L11.7119 68.534L12.9969 67.7921L14.0037 69.5358C15.0301 69.1217 16.0005 69.0883 16.9147 69.4355C17.8289 69.7828 18.5884 70.4783 19.1915 71.523L16.8689 72.864C16.4976 72.221 16.0866 71.8173 15.6387 71.6509C15.1892 71.4853 14.7418 71.5311 14.298 71.7874C13.8587 72.041 13.5902 72.3621 13.4926 72.7506C13.3951 73.1392 13.4738 73.5526 13.7274 73.9919C13.9625 74.399 14.2682 74.6584 14.6473 74.7679C15.025 74.8785 15.6082 74.8775 16.397 74.765C17.1857 74.6525 17.852 74.5911 18.3958 74.5806C18.9396 74.5702 19.4359 74.6265 19.8863 74.7487C20.3279 74.8678 20.7415 75.0733 21.1031 75.3533C21.465 75.6338 21.7866 76.0177 22.068 76.5052C22.5939 77.416 22.7358 78.3199 22.4969 79.2149C22.2564 80.1109 21.667 80.8976 20.7302 81.5743L21.6535 83.1734L20.3759 83.911L19.4572 82.3198C18.2901 82.8365 17.2149 82.9377 16.2302 82.6241C15.2453 82.3104 14.4359 81.6045 13.8019 80.5063L16.1246 79.1654C16.4926 79.8028 16.9262 80.2042 17.4256 80.3695C17.9249 80.5349 18.4579 80.4538 19.0262 80.1257C19.497 79.8539 19.797 79.5148 19.9275 79.1071C20.0566 78.7005 19.999 78.2855 19.7546 77.8622Z" fill="white"/>
<path fill-rule="evenodd" clip-rule="evenodd" d="M145.463 77.9344C132.189 71.1123 104.312 78.8151 104.312 78.8151L81.3201 50.8092C81.3201 50.8092 82.4829 44.2503 81.7573 43.7049C79.3748 41.9146 77.6067 46.8278 77.6067 46.8278C77.6067 46.8278 67.9753 41.3143 65.2429 41.4621C59.8385 41.7556 70.0333 50.3586 70.0333 50.3586C70.0333 50.3586 79.2262 85.0411 89.3675 93.7372C99.5088 102.433 122.632 102.063 130.872 102.537C146.025 103.411 153.175 81.898 145.463 77.9344Z" fill="#FAD8BA"/>
<path fill-rule="evenodd" clip-rule="evenodd" d="M70.3071 51.1035C72.6163 53.3861 79.5251 86.0696 100.894 95.056C105.618 97.0418 114.227 93.8016 119.346 93.7892C121.834 93.783 124.721 92.9512 127.163 93.4118C129.148 93.7855 130.323 95.7073 130.626 97.5793C132.14 106.938 120.27 109.933 113.321 110.055C111.695 110.083 110.069 110.046 108.449 109.893C106.681 109.726 104.91 109.488 103.167 109.144C85.148 105.591 74.7832 68.7984 70.3071 51.1035Z" fill="#D7B699"/>
<path fill-rule="evenodd" clip-rule="evenodd" d="M119.498 73.0971C116.83 77.2003 116.616 82.7016 116.526 87.4367C116.458 90.9162 116.47 94.3077 117.644 97.6148C118.674 100.511 120.27 103.771 122.584 105.876C127.339 110.196 134.486 107.685 139.238 104.727C147.796 99.4001 155.273 86.9649 147.895 77.728C146.752 76.2959 145.337 75.0413 143.789 74.059C140.894 72.2224 122.848 73.5929 119.498 73.0971Z" fill="#F25C05"/>
<path fill-rule="evenodd" clip-rule="evenodd" d="M163.85 84.6891C156.963 77.8004 127.64 65.1688 125.149 84.3018C121.891 109.315 109.733 133.517 109.733 133.517L162.765 133.152C162.765 133.152 170.735 91.5778 163.85 84.6891Z" fill="#F25C05"/>
<path fill-rule="evenodd" clip-rule="evenodd" d="M167.402 84.1101C164.849 96.269 160.911 110.238 151.183 118.611C147.442 121.832 141.498 122.571 136.577 127.103C128.231 134.784 123.64 131.375 116.75 128.852C113.396 127.628 109.093 125.971 105.532 126.417C100.66 127.029 102.067 130.908 104.62 134.172C106.778 136.923 110.11 138.515 113.316 139.699C119.835 142.111 126.969 143.121 133.884 143.418C143.526 143.829 154.2 143.032 162.843 138.349C180.515 128.769 174.509 101.512 167.402 84.1101Z" fill="#D23F00"/>
<path fill-rule="evenodd" clip-rule="evenodd" d="M141.813 70.8882L149.524 71.0001C148.455 73.8986 148.931 75.376 150.031 78.0949C140.225 97.0354 137.698 90.614 141.021 78.2691C142.321 76.4197 142.751 74.0574 141.813 70.8882Z" fill="#FAD8BA"/>
<path fill-rule="evenodd" clip-rule="evenodd" d="M140.98 75.4401C142.388 77.4827 144.805 78.3132 147.197 77.8132C148.574 77.5269 149.887 76.6583 150.182 75.1909C150.481 73.6963 149.558 72.5102 148.306 71.7971C146.352 70.6863 142.748 74.0126 140.98 75.4401Z" fill="#D7B699"/>
<path fill-rule="evenodd" clip-rule="evenodd" d="M141.305 66.0853C140.835 69.6854 140.317 73.3374 140.559 76.9721C140.684 78.8609 138.196 87.6379 142.132 88.63C145.559 89.4921 146.162 90.5925 143.884 92.6243C141.646 94.6171 138.63 94.5391 136.801 92.0568C135.724 90.5968 135.167 88.747 134.84 86.9838C134.122 83.1021 140.487 69.915 141.305 66.0853Z" fill="#D7B699"/>
<path fill-rule="evenodd" clip-rule="evenodd" d="M145.44 61.6346C142.458 61.6346 140.038 64.8341 140.038 68.7751C140.038 72.7158 140.555 76.1347 143.533 76.1347C146.515 76.1347 150.838 72.7158 150.838 68.7751C150.838 64.8341 148.418 61.6346 145.44 61.6346Z" fill="#FAD8BA"/>
<path fill-rule="evenodd" clip-rule="evenodd" d="M145.474 67.0544C144.673 68.1072 143.106 68.4395 141.872 68.3984C140.769 68.3619 139.613 68.0862 138.62 67.6086C135.857 66.281 136.2 62.9876 137.415 60.6569C138.494 58.5888 140.348 57.3517 142.565 58.6204C142.991 58.8655 143.319 59.2117 143.631 59.5888C144.525 59.2204 145.616 59.2723 146.552 59.3737C147.39 59.464 148.28 59.6068 149.066 59.9205C152.593 61.331 153.384 65.2652 152.438 68.5598C152.033 69.9647 151.266 71.4022 150.138 72.3592C149.631 72.7879 148.942 73.209 148.243 73.0733C146.441 72.7239 148.219 71.0015 148.413 70.1332C148.509 69.7097 148.5 69.0028 147.996 68.8395C147.699 68.7425 147.409 68.8733 147.18 69.0618C146.562 69.5719 146.256 70.379 145.585 70.8457C144.985 71.2634 144.803 70.761 144.967 70.2334C145.022 70.0535 145.087 69.8776 145.155 69.7014C145.288 69.349 145.43 67.4293 145.474 67.0544Z" fill="#03222F"/>
<path d="M76.5768 95.9224L72.4717 90.8059C72.4717 90.8059 83.7175 87.8315 85.7917 86.54C88.753 84.6977 92.5738 83.5372 97.2569 83.0587C101.943 82.5805 105.331 81.8865 107.424 80.9774C109.52 80.0683 111.204 78.7314 112.478 76.9663C116.323 71.6398 115.786 67.2021 110.871 63.6531C108.537 61.9697 106.153 61.3387 103.714 61.7604C101.275 62.182 99.1178 63.6309 97.2322 66.1069L83.5227 56.2108L79.4114 50.9081C79.4114 50.9081 94.4408 46.8111 99.566 46.2893C105.85 45.6494 112.305 47.7183 118.923 52.4958C125.606 57.3187 129.625 62.6763 130.979 68.5684C132.336 74.4609 130.886 80.3539 126.633 86.2476C124.697 88.9267 122.274 91.0238 119.359 92.5388C116.444 94.0541 112.441 95.1808 107.356 95.9193L100.898 96.7954C96.8427 97.3672 93.5258 99.0723 90.9478 101.911L88.6789 104.658L76.5768 95.9224ZM64.7283 109.447C66.2522 107.335 68.2275 106.111 70.651 105.776C73.0745 105.44 75.4053 106.079 77.6433 107.694C79.8813 109.31 81.2198 111.32 81.6649 113.727C82.1101 116.132 81.5691 118.392 80.0451 120.503C78.5428 122.583 76.6047 123.795 74.2213 124.138C71.8411 124.481 69.5011 123.823 67.2012 122.16C64.8983 120.5 63.5381 118.488 63.1116 116.12C62.6881 113.752 63.2259 111.527 64.7283 109.447Z" fill="#023341"/>
<path d="M72.4252 90.5585C75.61 86.1462 78.7019 83.03 81.6637 81.1928C84.6278 79.3522 88.4433 78.1857 93.1083 77.6968C97.8083 77.2282 101.187 76.5297 103.282 75.6183C105.375 74.7102 107.076 73.385 108.35 71.6188C112.196 66.2908 111.641 61.8407 106.721 58.289C104.407 56.619 102 55.9719 99.5634 56.3943C97.1272 56.8167 94.9824 58.277 93.0967 60.7522L79.3778 50.8498C83.7874 44.8781 89.1435 41.5771 95.4142 40.9238C101.715 40.2972 108.159 42.3566 114.774 47.1315C121.455 51.9533 125.469 57.3096 126.853 63.2204C128.202 69.1109 126.734 74.99 122.481 80.8817C120.546 83.5636 118.134 85.6692 115.211 87.1778C112.321 88.7098 108.297 89.8203 103.206 90.5566L96.7659 91.4444C92.6938 92.0045 89.3804 93.7116 86.8248 96.5656L84.5474 99.3083L72.4252 90.5585ZM60.5799 104.085C62.1041 101.973 64.0796 100.747 66.5013 100.413C68.9253 100.077 71.2765 100.733 73.4924 102.332C75.7409 103.955 77.072 105.957 77.5156 108.364C77.9615 110.767 77.4201 113.028 75.8959 115.14C74.3953 117.219 72.4713 118.442 70.0916 118.787C67.7119 119.131 65.365 118.467 63.0513 116.797C60.7703 115.151 59.4021 113.133 58.9794 110.766C58.5567 108.399 59.0792 106.164 60.5799 104.085Z" fill="#A6D2E4"/>
<path fill-rule="evenodd" clip-rule="evenodd" d="M162.16 84.6375C147.316 86.1818 128.184 107.872 128.184 107.872L93.6218 96.9917C93.6218 96.9917 91.0097 90.8641 90.104 90.8041C87.1303 90.6075 88.3358 95.6882 88.3358 95.6882C88.3358 95.6882 79.1766 94.8199 77.5785 95.3754C72.4656 97.1556 83.9247 102.785 83.9247 102.785C83.9247 102.785 110.583 126.8 123.829 128.537C137.075 130.274 156.234 117.322 163.393 113.215C176.559 105.662 170.784 83.7401 162.16 84.6375Z" fill="#FAD8BA"/>
<path fill-rule="evenodd" clip-rule="evenodd" d="M144.716 96.6428C144.06 99.8428 144.533 103.768 145.804 106.733C146.703 108.824 147.788 110.832 148.669 112.927C149.031 113.786 149.612 114.911 149.325 115.869C148.991 116.982 147.702 117.866 146.778 118.435C145.943 118.948 145.047 119.362 144.128 119.696C142.577 120.262 140.951 120.621 139.331 120.93C136.784 121.415 134.175 121.675 131.587 121.835C127.659 122.077 123.643 122.043 119.739 121.474C110.926 120.188 102.706 116.645 95.337 111.74C92.5178 109.863 89.7419 107.897 87.0526 105.837C86.4096 105.343 83.9861 102.978 84.3972 105.211C84.7527 107.151 85.8748 109.05 86.8764 110.708C88.9691 114.172 91.4452 117.375 94.3478 120.197C97.0743 122.849 100.15 125.155 103.405 127.112C118.586 136.231 137.121 134.908 152.583 127.155C159.575 123.65 167.272 118.655 170.571 111.236C171.603 108.908 144.512 99.1631 144.716 96.6428Z" fill="#D7B699"/>
<path fill-rule="evenodd" clip-rule="evenodd" d="M142.036 91.729C142.045 96.6233 144.873 101.347 147.386 105.361C149.232 108.311 151.096 111.145 153.887 113.272C156.332 115.134 159.451 116.991 162.54 117.489C168.883 118.506 173.495 112.497 175.856 107.421C180.11 98.2829 179.572 83.7831 168.345 80.082C166.604 79.5079 164.734 79.2307 162.901 79.2545C159.473 79.2993 145.111 90.3129 142.036 91.729Z" fill="#F25C05"/>
<path fill-rule="evenodd" clip-rule="evenodd" d="M29.3628 132.943H167.413V133.849H29.3628V132.943Z" fill="#03222F"/>
<path fill-rule="evenodd" clip-rule="evenodd" d="M9.96289 133.057H24.7541V134.02H9.96289V133.057Z" fill="#03222F"/>
<path fill-rule="evenodd" clip-rule="evenodd" d="M8.3174 25.4933C8.3174 20.3279 15.4303 15.0474 20.5954 15.0474H55.359C60.5241 15.0474 64.7178 19.241 64.7178 24.4064V43.1242C64.7178 48.2895 60.5241 52.4832 55.359 52.4832V64.1865C55.359 64.8771 50.997 68.6798 50.5329 68.1671C46.308 63.4829 40.8832 52.4832 40.8832 52.4832H20.5954C15.4303 52.4832 11.2366 48.2895 11.2366 43.1242L8.3174 25.4933Z" fill="#023341"/>
<path fill-rule="evenodd" clip-rule="evenodd" d="M7.94365 26.9203C7.94365 21.7549 12.1373 17.5613 17.3024 17.5613H52.066C57.2311 17.5613 61.4248 21.7549 61.4248 26.9203V45.6381C61.4248 50.8035 57.2311 54.9971 52.066 54.9971V66.7004C52.066 67.0377 51.9637 67.3671 51.7727 67.6452C51.5816 67.9232 51.3108 68.1368 50.996 68.2579C50.6808 68.3789 50.3364 68.4017 50.0081 68.3232C49.6797 68.2447 49.3828 68.0687 49.1564 67.8183C44.9315 63.1339 37.5902 54.9971 37.5902 54.9971H17.3024C12.1373 54.9971 7.94365 50.8035 7.94365 45.6381V26.9203Z" fill="#6993A4"/>
<path fill-rule="evenodd" clip-rule="evenodd" d="M16.6001 26.7634C11.9758 31.7614 12.2786 39.5598 17.2755 44.183C19.4181 46.1654 22.1955 47.3235 25.1118 47.4504L25.5141 38.2139C24.7846 38.1825 24.09 37.893 23.554 37.3971C22.3053 36.2418 22.2296 34.2917 23.3859 33.0419L16.6001 26.7634ZM27.4258 47.3337C30.2154 46.9264 32.7813 45.5757 34.6961 43.5065C39.1743 38.6664 39.05 31.1591 34.4139 26.4693L30.0308 30.8029C32.3482 33.1473 32.4104 36.901 30.1718 39.3205C29.214 40.3556 27.9314 41.0304 26.5372 41.2346L27.4258 47.3337ZM32.2659 24.7358C27.9344 21.9787 22.3473 22.1957 18.2426 25.2804L20.8729 28.781C23.5195 26.7927 27.1222 26.6528 29.915 28.4299L32.2659 24.7358Z" fill="white"/>
<path fill-rule="evenodd" clip-rule="evenodd" d="M51.5096 27.5445C51.5091 27.1863 51.3663 26.843 51.1129 26.5899C50.8594 26.3368 50.5159 26.1946 50.1577 26.1946H42.7259C42.369 26.1946 42.0243 26.3369 41.7725 26.5901C41.6469 26.7153 41.5472 26.864 41.4792 27.0278C41.4112 27.1916 41.3763 27.3672 41.3765 27.5445V27.5751C41.3765 27.933 41.5183 28.2765 41.7725 28.5295C41.8976 28.6549 42.0462 28.7544 42.2098 28.8223C42.3734 28.8901 42.5488 28.925 42.7259 28.925H50.1577C50.5159 28.925 50.8594 28.7828 51.1129 28.5297C51.3663 28.2766 51.5091 27.9333 51.5096 27.5751V27.5445Z" fill="white"/>
<path fill-rule="evenodd" clip-rule="evenodd" d="M57.8281 34.024C57.8281 33.7265 57.709 33.441 57.4986 33.2305C57.2883 33.0201 57.0025 32.9019 56.7048 32.9019H42.4984C42.2007 32.9019 41.9149 33.0201 41.7045 33.2305C41.4941 33.441 41.375 33.7265 41.375 34.024V34.025C41.375 34.3225 41.4941 34.6079 41.7045 34.8184C41.9149 35.0289 42.2007 35.1471 42.4984 35.1471H56.7048C57.0025 35.1471 57.2883 35.0289 57.4986 34.8184C57.709 34.6079 57.8281 34.3225 57.8281 34.025V34.024Z" fill="white"/>
<path fill-rule="evenodd" clip-rule="evenodd" d="M57.8281 37.7987C57.8281 37.5012 57.709 37.2158 57.4986 37.0053C57.2883 36.7948 57.0025 36.6766 56.7048 36.6766H42.4984C42.2007 36.6766 41.9149 36.7948 41.7045 37.0053C41.4941 37.2158 41.375 37.5012 41.375 37.7987V37.7998C41.375 38.0973 41.4941 38.3827 41.7045 38.5932C41.9149 38.8037 42.2007 38.9219 42.4984 38.9219H56.7048C57.0025 38.9219 57.2883 38.8037 57.4986 38.5932C57.709 38.3827 57.8281 38.0973 57.8281 37.7998V37.7987Z" fill="white"/>
<path fill-rule="evenodd" clip-rule="evenodd" d="M57.8281 41.5734C57.8281 41.2759 57.709 40.9904 57.4986 40.78C57.2883 40.5695 57.0025 40.4513 56.7048 40.4513H42.4984C42.2007 40.4513 41.9149 40.5695 41.7045 40.78C41.4941 40.9904 41.375 41.2759 41.375 41.5734V41.5744C41.375 41.8719 41.4941 42.1574 41.7045 42.3679C41.9149 42.5783 42.2007 42.6965 42.4984 42.6965H56.7048C57.0025 42.6965 57.2883 42.5783 57.4986 42.3679C57.709 42.1574 57.8281 41.8719 57.8281 41.5744V41.5734Z" fill="white"/>
</g>
<defs>
<clipPath id="clip0_164_3851">
<rect width="184" height="143.534" fill="white"/>
</clipPath>
</defs>
</svg>
