<svg width="182" height="118" viewBox="0 0 182 118" fill="none" xmlns="http://www.w3.org/2000/svg">
<path opacity="0.2" fill-rule="evenodd" clip-rule="evenodd" d="M31.7747 103C30.6876 96.297 24.6475 95.1067 19.0639 92.7764C14.0708 90.6892 8.85525 87.7358 4.99493 83.9795C0.27295 79.3871 -1.89543 72.7313 2.05048 67.0159C3.52842 64.8743 5.48284 63.0131 7.65695 61.5529C9.39167 60.3886 11.3175 59.5526 13.3461 59.0156C29.8516 54.6397 33.6492 77.7145 49.256 75.8576C58.7998 74.7221 64.9826 66.2143 70.4578 59.4199C75.6876 52.9289 81.8933 47.0177 89.8536 43.8956C99.0265 40.2993 107.58 45.65 116.185 48.4547C121.218 50.0951 126.462 50.8577 131.766 50.5615C144.415 49.8557 144.3 33.2079 155.881 27.7119C179.537 16.4847 191.785 42.5553 172.404 61.3361C166.849 66.7195 159.068 70.7628 154.82 77.3695C149.699 85.3385 150.923 93.5783 151.93 102.455L31.7747 103Z" fill="url(#paint0_linear_424_4730)"/>
<circle cx="90" cy="59" r="59" fill="url(#paint1_linear_424_4730)"/>
<path fill-rule="evenodd" clip-rule="evenodd" d="M98.7767 27.2308C100.602 27.2308 102.235 28.3637 102.874 30.0732L103.449 31.6087C104.088 33.3181 105.721 34.4511 107.547 34.4511H125.79C128.207 34.4511 130.165 36.4098 130.165 38.8261V86.3943C130.165 88.8105 128.207 90.7693 125.79 90.7693H53.5288C51.1126 90.7693 49.1538 88.8105 49.1538 86.3943V38.8261C49.1538 36.4098 51.1126 34.4511 53.5288 34.4511H71.7728C73.5979 34.4511 75.2313 33.3181 75.8706 31.6087L76.4449 30.0732C77.0842 28.3637 78.7176 27.2308 80.5427 27.2308H98.7767ZM90.3347 76.3287C98.1644 76.3287 104.512 69.5402 104.512 61.1662C104.512 52.7921 98.1644 46.0036 90.3347 46.0036C82.5049 46.0036 76.1577 52.7921 76.1577 61.1662C76.1577 69.5402 82.5049 76.3287 90.3347 76.3287Z" fill="white"/>
<defs>
<linearGradient id="paint0_linear_424_4730" x1="0" y1="64" x2="187.041" y2="64" gradientUnits="userSpaceOnUse">
<stop stop-color="#FFB640"/>
<stop offset="1" stop-color="#FF9D00"/>
</linearGradient>
<linearGradient id="paint1_linear_424_4730" x1="149" y1="60.3111" x2="31" y2="60.3111" gradientUnits="userSpaceOnUse">
<stop stop-color="#129AA3"/>
<stop offset="1" stop-color="#1BD5E1"/>
</linearGradient>
</defs>
</svg>
