<svg width="182" height="123" viewBox="0 0 182 123" fill="none" xmlns="http://www.w3.org/2000/svg">
<path opacity="0.2" fill-rule="evenodd" clip-rule="evenodd" d="M150.225 105C151.312 98.297 157.353 97.1067 162.936 94.7764C167.929 92.6892 173.145 89.7358 177.005 85.9795C181.727 81.3871 183.895 74.7313 179.95 69.0159C178.472 66.8743 176.517 65.0131 174.343 63.5529C172.608 62.3886 170.682 61.5526 168.654 61.0156C152.148 56.6397 148.351 79.7145 132.744 77.8576C123.2 76.7221 117.017 68.2143 111.542 61.4199C106.312 54.9289 100.107 49.0177 92.1464 45.8956C82.9735 42.2993 74.4198 47.65 65.8146 50.4547C60.7817 52.0951 55.5376 52.8577 50.2335 52.5615C37.5855 51.8557 37.6996 35.2079 26.1186 29.7119C2.4631 18.4847 -9.78548 44.5553 9.59602 63.3361C15.1511 68.7195 22.9317 72.7628 27.18 79.3695C32.3015 87.3385 31.0775 95.5783 30.0703 104.455L150.225 105Z" fill="url(#paint0_linear_424_4741)"/>
<circle cx="89.5" cy="61.5" r="61.5" fill="url(#paint1_linear_424_4741)"/>
<path d="M105.486 87.0318H60.2232C58.1542 87.0293 56.1707 86.2063 54.7077 84.7433C53.2447 83.2803 52.4217 81.2968 52.4192 79.2278V32.404C52.4192 28.1024 55.9216 24.6 60.2232 24.6H85.1959C85.5213 24.6 85.8385 24.7017 86.1033 24.8909C86.368 25.0801 86.567 25.3472 86.6724 25.6551L106.963 84.9653C107.042 85.2003 107.064 85.4506 107.027 85.6958C106.991 85.941 106.897 86.1741 106.752 86.3758C106.608 86.5775 106.418 86.7421 106.198 86.8562C105.978 86.9702 105.734 87.0304 105.486 87.0318ZM68.0737 44.7272C65.4922 44.7272 65.8374 55.5639 65.8374 58.1454L61.3646 57.0272L59.1283 60.3818L63.601 68.2091C63.601 70.7906 68.0737 73.8 70.3101 76.0363H81.4919L87.0828 72.6818V55.9091L84.8465 46.9636L81.4919 44.7272L78.1374 42.4909H72.5465L68.0737 44.7272Z" fill="white"/>
<path d="M119.533 99.5182H94.5606C94.2431 99.5182 93.9332 99.4214 93.6721 99.2407C93.4111 99.06 93.2114 98.804 93.0997 98.5068L88.4173 86.0205C88.2716 85.633 88.2857 85.2036 88.4567 84.8266C88.6276 84.4496 88.9413 84.1559 89.3288 84.0102C89.7162 83.8645 90.1457 83.8786 90.5227 84.0496C90.8997 84.2205 91.1934 84.5342 91.3391 84.9217L95.6438 96.3967H119.533C122.115 96.3967 124.216 94.2958 124.216 91.7143V44.8904C124.216 42.3088 122.115 40.208 119.533 40.208H89.8782C89.4642 40.208 89.0672 40.0436 88.7745 39.7509C88.4818 39.4582 88.3174 39.0612 88.3174 38.6472C88.3174 38.2333 88.4818 37.8363 88.7745 37.5436C89.0672 37.2509 89.4642 37.0864 89.8782 37.0864H119.533C123.835 37.0864 127.337 40.5889 127.337 44.8904V91.7143C127.337 96.0158 123.835 99.5182 119.533 99.5182Z" fill="white"/>
<path d="M94.5607 99.5184C94.2605 99.5186 93.9666 99.4322 93.7142 99.2696C93.4619 99.107 93.2617 98.8751 93.1379 98.6016C93.014 98.3282 92.9716 98.0248 93.0158 97.7278C93.06 97.4309 93.1889 97.153 93.387 96.9274L104.313 84.4411C104.448 84.2867 104.612 84.1605 104.796 84.0696C104.979 83.9787 105.179 83.9249 105.384 83.9113C105.589 83.8977 105.794 83.9245 105.988 83.9902C106.183 84.0559 106.362 84.1593 106.516 84.2944C106.671 84.4294 106.797 84.5936 106.888 84.7774C106.979 84.9613 107.033 85.1613 107.046 85.3659C107.06 85.5705 107.033 85.7759 106.967 85.9701C106.902 86.1644 106.798 86.3439 106.663 86.4982L95.7376 98.9846C95.5906 99.1521 95.4097 99.2864 95.2067 99.3784C95.0038 99.4705 94.7836 99.5182 94.5607 99.5184Z" fill="white"/>
<path d="M84.9362 45.032C83.8452 44.1819 82.3582 44.1191 81.2037 44.7537C81.114 44.0263 80.7815 43.3288 79.9632 42.6912C79.4177 42.2662 78.3865 41.901 77.1723 42.0507C76.4437 42.1406 75.9879 42.4429 75.5022 42.5028C75.4425 42.0179 75.1697 41.8053 74.8671 41.3503C73.4734 40.0452 71.0449 40.3446 70.0101 41.9492C69.5842 42.4941 69.1583 43.0389 69.2181 43.5239C68.7324 43.5837 68.2168 43.4012 67.7311 43.4611C66.5168 43.6108 65.8481 44.1856 65.2092 45.0028C64.1445 46.3649 64.3836 48.3047 64.3836 48.3047L65.5198 57.5188C64.7015 56.8812 63.3378 55.8186 61.6379 56.0282C61.1522 56.0881 60.4535 56.4204 59.9977 56.7227C59.0861 57.3275 58.6901 58.1148 58.5669 59.1146C58.1373 61.6292 60.7415 64.7544 60.7714 64.9968C61.0442 65.2094 64.4929 71.1843 67.2502 73.5521C70.0375 76.1624 72.9182 77.5303 79.7179 76.6919C86.7606 75.8235 89.4392 71.5546 88.3928 63.0679L86.7484 49.7318C86.7185 49.4893 86.6025 46.5497 84.9362 45.032ZM71.4598 45.7091C71.3701 44.9816 70.918 43.3142 72.3751 43.1346C73.5893 42.9849 73.7388 44.1972 73.8883 45.4096L75.0843 55.1086C75.174 55.8361 75.7195 56.2611 76.448 56.1713C77.1766 56.0815 77.6025 55.5366 77.5128 54.8092L76.3766 45.5951C76.3766 45.5951 76.257 44.6252 77.4713 44.4755C78.9284 44.2958 78.9546 46.508 78.9546 46.508L79.9413 54.5097C80.031 55.2372 80.5765 55.6622 81.305 55.5724C82.0336 55.4826 82.4595 54.9377 82.3698 54.2103L81.6522 48.3909C81.6223 48.1484 81.4728 46.936 82.6871 46.7863C83.9013 46.6366 84.2003 49.0613 84.2003 49.0613L85.9643 63.3674C86.9809 71.6116 84.0331 73.6982 79.419 74.2671C73.5906 74.9858 71.2554 74.0429 68.9838 71.6152C66.4991 69.46 62.8076 63.515 62.7777 63.2725C61.9594 62.6349 60.7189 60.5724 60.8422 59.5725C60.8123 59.3301 61.0252 59.0577 61.2382 58.7852C61.481 58.7553 61.694 58.4829 61.694 58.4829C62.6654 58.3631 63.7863 59.4557 64.0889 59.9107L65.8151 61.9133C66.1178 62.3683 66.8762 62.521 67.332 62.2186C68.3034 62.0988 68.4865 61.5839 68.4267 61.099L66.8719 48.4902C66.7523 47.5203 66.573 46.0655 67.7872 45.9158C68.7586 45.796 69.0911 46.4935 69.2406 47.7058L70.2273 55.7075C70.317 56.435 70.8625 56.86 71.591 56.7702C72.3196 56.6803 72.7455 56.1355 72.6558 55.4081L71.4598 45.7091Z" fill="white"/>
<path fill-rule="evenodd" clip-rule="evenodd" d="M98.0726 66.6463H118.802C119.392 66.6463 119.875 67.1096 119.875 67.6758V69.7348C119.875 70.0078 119.762 70.2697 119.561 70.4627C119.359 70.6558 119.087 70.7643 118.802 70.7643L99.609 70.6921C99.3245 70.6921 99.664 70.2999 99.4627 70.1068C99.2615 69.9138 99.0969 69.5751 99.0969 69.3021L98.7311 68.6436C98.7311 68.3706 97.8714 67.7392 98.0726 67.5462C98.2739 67.3531 97.788 66.6463 98.0726 66.6463ZM95.1949 58.4103H118.802C119.392 58.4103 119.875 58.8736 119.875 59.4398V61.4988C119.875 61.7718 119.762 62.0337 119.561 62.2268C119.359 62.4198 119.087 62.5283 118.802 62.5283L96.0973 62.6119C95.8127 62.6119 96.4448 62.4392 96.2436 62.2461C96.0423 62.053 96.0973 61.8071 95.8778 61.5876L95.5851 60.6365C95.5851 60.3635 94.6523 58.7079 94.8535 58.5148C95.0547 58.3217 94.9103 58.4103 95.1949 58.4103ZM105.925 74.8823H118.802C119.392 74.8823 119.875 75.3455 119.875 75.9118V77.9708C119.875 78.2438 119.762 78.5057 119.561 78.6987C119.359 78.8918 119.087 79.0003 118.802 79.0003H105.925C105.641 79.0003 105.368 78.8918 105.167 78.6987C104.965 78.5057 104.852 78.2438 104.852 77.9708V75.9118C104.852 75.6387 104.965 75.3769 105.167 75.1838C105.368 74.9907 105.641 74.8823 105.925 74.8823ZM95.1949 50.1743H118.802C119.392 50.1743 119.875 50.6376 119.875 51.2038V53.2628C119.875 53.5358 119.762 53.7977 119.561 53.9908C119.359 54.1838 119.087 54.2923 118.802 54.2923H95.1949C94.9103 54.2923 94.6374 54.1838 94.4362 53.9908C94.2349 53.7977 94.1219 53.5358 94.1219 53.2628V51.2038C94.1219 50.9308 94.2349 50.6689 94.4362 50.4758C94.6374 50.2828 94.9103 50.1743 95.1949 50.1743Z" fill="white"/>
<defs>
<linearGradient id="paint0_linear_424_4741" x1="182" y1="66" x2="-5.04082" y2="66" gradientUnits="userSpaceOnUse">
<stop stop-color="#FFB640"/>
<stop offset="1" stop-color="#FF9D00"/>
</linearGradient>
<linearGradient id="paint1_linear_424_4741" x1="151" y1="62.8667" x2="28" y2="62.8667" gradientUnits="userSpaceOnUse">
<stop stop-color="#129AA3"/>
<stop offset="1" stop-color="#1BD5E1"/>
</linearGradient>
</defs>
</svg>
