<svg width="174" height="131" viewBox="0 0 174 131" fill="none" xmlns="http://www.w3.org/2000/svg">
<path opacity="0.2" fill-rule="evenodd" clip-rule="evenodd" d="M94.6835 101.516C93.7045 95.527 151.161 75.355 155.164 71.8328C158.743 68.6803 162.264 64.7312 164.428 60.4756C167.075 55.2722 167.012 49.0241 162.111 45.2657C160.276 43.8571 158.121 42.8184 155.896 42.1807C154.121 41.6726 152.279 41.4959 150.436 41.6014C135.433 42.4542 138.757 63.0862 125.213 65.8279C116.931 67.5046 109.378 61.9953 102.898 57.7442C96.7083 53.6827 99.8988 39.9212 92.3786 39.4739C83.7133 38.9598 81.23 65.6921 61.66 61.0894C70.6788 73.8743 64.6265 81.6241 60.1178 82.8401C49.3663 85.7402 33.9122 55.9287 22.7032 54.4686C-0.192909 51.4853 -3.07701 76.9975 18.3784 87.5732C24.528 90.6048 32.1574 91.8835 37.5609 96.3147C44.0763 101.66 86.198 95.4552 87.8554 103.267L94.6835 101.516Z" fill="url(#paint0_linear_424_4761)"/>
<g filter="url(#filter0_d_424_4761)">
<path d="M86.5021 80.7833C91.1345 80.7833 95.5772 78.9431 98.8529 75.6675C102.129 72.3918 103.969 67.9491 103.969 63.3167V41.4833C103.969 36.8509 102.129 32.4082 98.8529 29.1325C95.5772 25.8569 91.1345 24.0167 86.5021 24.0167C81.8696 24.0167 77.4269 25.8569 74.1513 29.1325C70.8756 32.4082 69.0354 36.8509 69.0354 41.4833V63.3167C69.0354 67.9491 70.8756 72.3918 74.1513 75.6675C77.4269 78.9431 81.8696 80.7833 86.5021 80.7833Z" fill="url(#paint1_linear_424_4761)"/>
<path d="M117.067 63.315C117.067 62.1569 116.607 61.0462 115.788 60.2273C114.97 59.4084 113.859 58.9483 112.701 58.9483C111.543 58.9483 110.432 59.4084 109.613 60.2273C108.794 61.0462 108.334 62.1569 108.334 63.315C108.334 69.1055 106.034 74.6589 101.939 78.7535C97.8447 82.848 92.2913 85.1483 86.5007 85.1483C80.7102 85.1483 75.1568 82.848 71.0622 78.7535C66.9677 74.6589 64.6674 69.1055 64.6674 63.315C64.6674 62.1569 64.2074 61.0462 63.3884 60.2273C62.5695 59.4084 61.4589 58.9483 60.3007 58.9483C59.1426 58.9483 58.032 59.4084 57.213 60.2273C56.3941 61.0462 55.9341 62.1569 55.9341 63.315C55.9427 70.659 58.5952 77.7545 63.4062 83.3033C68.2173 88.852 74.8653 92.4832 82.1341 93.5323V102.615H72.9204C71.8897 102.615 70.9012 103.024 70.1724 103.753C69.4435 104.482 69.0341 105.471 69.0341 106.501V107.462C69.0341 108.493 69.4435 109.481 70.1724 110.21C70.9012 110.939 71.8897 111.348 72.9204 111.348H100.081C101.112 111.348 102.1 110.939 102.829 110.21C103.558 109.481 103.967 108.493 103.967 107.462V106.501C103.967 105.471 103.558 104.482 102.829 103.753C102.1 103.024 101.112 102.615 100.081 102.615H90.8674V93.5323C98.1362 92.4832 104.784 88.852 109.595 83.3033C114.406 77.7545 117.059 70.659 117.067 63.315Z" fill="url(#paint2_linear_424_4761)"/>
</g>
<defs>
<filter id="filter0_d_424_4761" x="47.9341" y="16.0167" width="81.1333" height="107.332" filterUnits="userSpaceOnUse" color-interpolation-filters="sRGB">
<feFlood flood-opacity="0" result="BackgroundImageFix"/>
<feColorMatrix in="SourceAlpha" type="matrix" values="0 0 0 0 0 0 0 0 0 0 0 0 0 0 0 0 0 0 127 0" result="hardAlpha"/>
<feOffset dx="2" dy="2"/>
<feGaussianBlur stdDeviation="5"/>
<feComposite in2="hardAlpha" operator="out"/>
<feColorMatrix type="matrix" values="0 0 0 0 0 0 0 0 0 0 0 0 0 0 0 0 0 0 0.2 0"/>
<feBlend mode="normal" in2="BackgroundImageFix" result="effect1_dropShadow_424_4761"/>
<feBlend mode="normal" in="SourceGraphic" in2="effect1_dropShadow_424_4761" result="shape"/>
</filter>
<linearGradient id="paint0_linear_424_4761" x1="162.973" y1="42.1391" x2="6.91563" y2="93.883" gradientUnits="userSpaceOnUse">
<stop stop-color="#FFB640"/>
<stop offset="1" stop-color="#FF9D00"/>
</linearGradient>
<linearGradient id="paint1_linear_424_4761" x1="103.969" y1="53.0307" x2="69.0354" y2="53.0307" gradientUnits="userSpaceOnUse">
<stop stop-color="#129AA3"/>
<stop offset="1" stop-color="#1BD5E1"/>
</linearGradient>
<linearGradient id="paint2_linear_424_4761" x1="117.067" y1="85.7305" x2="55.9341" y2="85.7305" gradientUnits="userSpaceOnUse">
<stop stop-color="#129AA3"/>
<stop offset="1" stop-color="#1BD5E1"/>
</linearGradient>
</defs>
</svg>
