<svg width="28" height="21" viewBox="0 0 28 21" fill="none" xmlns="http://www.w3.org/2000/svg">
<path d="M25.8968 15.6114V3.58795C26.3874 3.58795 26.8579 3.78284 27.2048 4.12974C27.5517 4.47664 27.7466 4.94713 27.7466 5.43772V18.3861C27.7466 18.8767 27.5517 19.3472 27.2048 19.6941C26.8579 20.041 26.3874 20.2359 25.8968 20.2359H17.2214C18.9538 19.0323 21.0127 18.3869 23.1222 18.3861C23.858 18.3861 24.5638 18.0938 25.0841 17.5734C25.6045 17.0531 25.8968 16.3473 25.8968 15.6114ZM1.84982 3.58795V15.6114C1.84982 16.3473 2.14215 17.0531 2.66249 17.5734C3.18284 18.0938 3.88859 18.3861 4.62447 18.3861C6.73394 18.3869 8.79279 19.0323 10.5252 20.2359H1.84982C1.35923 20.2359 0.888733 20.041 0.541834 19.6941C0.194935 19.3472 4.88758e-05 18.8767 4.88758e-05 18.3861V5.43772C4.88758e-05 4.94713 0.194935 4.47664 0.541834 4.12974C0.888733 3.78284 1.35923 3.58795 1.84982 3.58795Z" fill="url(#paint0_linear_383_5018)"/>
<path d="M23.3324 -0.000488281C23.5777 -0.000488281 23.813 0.0969548 23.9864 0.270404C24.1599 0.443854 24.2573 0.679102 24.2573 0.924396V15.7225C24.2573 15.9678 24.1599 16.2031 23.9864 16.3765C23.813 16.55 23.5777 16.6474 23.3324 16.6474C20.55 16.6503 17.8506 17.5958 15.6744 19.3296L15.0085 19.866V0.165991C15.3051 0.0583134 15.6178 0.00201312 15.9334 -0.000488281H23.3324ZM3.90987 15.7225V0.924396C3.90987 0.679102 4.00731 0.443854 4.18076 0.270404C4.35421 0.0969548 4.58946 -0.000488281 4.83475 -0.000488281H12.2338C12.5493 0.00201312 12.8621 0.0583134 13.1587 0.165991V19.866L12.4928 19.3296C10.3166 17.5958 7.6172 16.6503 4.83475 16.6474C4.58946 16.6474 4.35421 16.55 4.18076 16.3765C4.00731 16.2031 3.90987 15.9678 3.90987 15.7225Z" fill="url(#paint1_linear_383_5018)"/>
<defs>
<linearGradient id="paint0_linear_383_5018" x1="4.95702e-05" y1="12.0969" x2="27.7466" y2="12.0969" gradientUnits="userSpaceOnUse">
<stop stop-color="#129AA3"/>
<stop offset="1" stop-color="#1BD5E1"/>
</linearGradient>
<linearGradient id="paint1_linear_383_5018" x1="3.90987" y1="10.1535" x2="24.2573" y2="10.1535" gradientUnits="userSpaceOnUse">
<stop stop-color="#129AA3"/>
<stop offset="1" stop-color="#1BD5E1"/>
</linearGradient>
</defs>
</svg>
