<svg width="109" height="70" viewBox="0 0 109 70" fill="none" xmlns="http://www.w3.org/2000/svg">
<path fill-rule="evenodd" clip-rule="evenodd" d="M64.2021 0C65.802 0 67.2348 0.990408 67.8001 2.48708L68.7523 5.00784C69.3176 6.50452 70.7504 7.49493 72.3503 7.49493H92.7399C94.8641 7.49493 96.5861 9.21691 96.5861 11.3411V62.1079C96.5861 64.2321 94.8641 65.954 92.7399 65.954H15.5034C13.3792 65.954 11.6572 64.2321 11.6572 62.1079V11.3411C11.6572 9.21691 13.3792 7.49493 15.5034 7.49493H35.8924C37.4923 7.49493 38.9251 6.50452 39.4904 5.00784L40.4426 2.48709C41.0079 0.990408 42.4407 0 44.0406 0H64.2021ZM54.8299 50.9644C63.0383 50.9644 69.6924 43.9178 69.6924 35.2254C69.6924 26.533 63.0383 19.4864 54.8299 19.4864C46.6215 19.4864 39.9673 26.533 39.9673 35.2254C39.9673 43.9178 46.6215 50.9644 54.8299 50.9644Z" fill="url(#paint0_linear_381_4893)"/>
<path fill-rule="evenodd" clip-rule="evenodd" d="M0 45.2054C0 41.5044 4.3579 38.1006 11.6572 35.4075V38.6186C9.31072 39.5464 7.40088 40.5271 5.95738 41.5236C3.49754 43.2216 3 44.5157 3 45.2054C3 45.895 3.49754 47.1892 5.95738 48.8872C8.32492 50.5215 11.9469 52.1135 16.6926 53.4991C22.9938 55.3389 30.9762 56.7292 39.9663 57.4517V60.4611C16.941 58.6444 0 52.5025 0 45.2054ZM53.2885 61.0052C53.5656 61.0065 53.8432 61.0071 54.1213 61.0071C84.0117 61.0071 108.243 53.9324 108.243 45.2054C108.243 41.5045 103.885 38.1008 96.5861 35.4077V38.6189C98.9323 39.5466 100.842 40.5272 102.285 41.5236C104.745 43.2216 105.243 44.5157 105.243 45.2054C105.243 45.895 104.745 47.1892 102.285 48.8872C99.9177 50.5215 96.2957 52.1135 91.5501 53.4991C82.0986 56.2587 68.8646 58.0071 54.1213 58.0071C53.8432 58.0071 53.5655 58.0065 53.2885 58.0052V61.0052Z" fill="black"/>
<path d="M28.8818 48.8163L43.0772 59.764L25.0602 66.6141" stroke="#170A08" stroke-width="3" stroke-linecap="round"/>
<defs>
<linearGradient id="paint0_linear_381_4893" x1="11.6572" y1="32.9769" x2="98.9384" y2="32.9769" gradientUnits="userSpaceOnUse">
<stop stop-color="#FFB640"/>
<stop offset="1" stop-color="#FF9D00"/>
</linearGradient>
</defs>
</svg>
