<svg width="25" height="25" viewBox="0 0 25 25" fill="none" xmlns="http://www.w3.org/2000/svg">
<path d="M17.4354 20.5123H2.56403C1.88426 20.5114 1.23256 20.241 0.751887 19.7604C0.271214 19.2797 0.000814263 18.628 0 17.9482L0 2.56403C0 1.15074 1.15074 0 2.56403 0H10.7689C10.8758 6.10231e-06 10.9801 0.0334232 11.067 0.0955783C11.154 0.157733 11.2194 0.245518 11.254 0.346657L17.9205 19.8333C17.9465 19.9105 17.9538 19.9928 17.9418 20.0733C17.9297 20.1539 17.8988 20.2304 17.8514 20.2967C17.8041 20.363 17.7417 20.4171 17.6694 20.4546C17.597 20.492 17.5169 20.5118 17.4354 20.5123ZM5.14337 6.61291C4.29519 6.61291 4.4086 10.1733 4.4086 11.0215L2.93907 10.6541L2.2043 11.7563L3.67384 14.328C3.67384 15.1761 5.14337 16.1649 5.87814 16.8996H9.55197L11.3889 15.7975V10.2867L10.6541 7.34767L9.55197 6.61291L8.44982 5.87814H6.61291L5.14337 6.61291Z" fill="url(#paint0_linear_383_4845)"/>
<path d="M22.051 24.6147H13.8461C13.7418 24.6147 13.64 24.5829 13.5543 24.5235C13.4685 24.4641 13.4029 24.38 13.3662 24.2824L11.8277 20.1799C11.7799 20.0526 11.7845 19.9115 11.8407 19.7876C11.8969 19.6638 11.9999 19.5673 12.1272 19.5194C12.2545 19.4716 12.3956 19.4762 12.5195 19.5324C12.6434 19.5885 12.7398 19.6916 12.7877 19.8189L14.202 23.5891H22.051C22.8992 23.5891 23.5895 22.8988 23.5895 22.0506V6.66645C23.5895 5.81827 22.8992 5.12803 22.051 5.12803H12.3077C12.1717 5.12803 12.0413 5.074 11.9451 4.97783C11.8489 4.88166 11.7949 4.75123 11.7949 4.61522C11.7949 4.47922 11.8489 4.34878 11.9451 4.25261C12.0413 4.15644 12.1717 4.10242 12.3077 4.10242H22.051C23.4643 4.10242 24.6151 5.25315 24.6151 6.66645V22.0506C24.6151 23.4639 23.4643 24.6147 22.051 24.6147Z" fill="url(#paint1_linear_383_4845)"/>
<path d="M13.8462 24.6149C13.7476 24.6149 13.651 24.5866 13.5681 24.5331C13.4852 24.4797 13.4194 24.4035 13.3787 24.3137C13.338 24.2238 13.3241 24.1241 13.3386 24.0266C13.3531 23.929 13.3955 23.8377 13.4606 23.7636L17.0502 19.6612C17.0946 19.6105 17.1485 19.569 17.2089 19.5391C17.2693 19.5092 17.335 19.4916 17.4023 19.4871C17.4695 19.4826 17.537 19.4914 17.6008 19.513C17.6646 19.5346 17.7236 19.5686 17.7743 19.613C17.825 19.6573 17.8665 19.7113 17.8963 19.7717C17.9262 19.8321 17.9439 19.8978 17.9484 19.965C17.9528 20.0323 17.944 20.0997 17.9224 20.1635C17.9008 20.2274 17.8669 20.2863 17.8225 20.337L14.2328 24.4395C14.1846 24.4945 14.1251 24.5386 14.0584 24.5689C13.9918 24.5991 13.9194 24.6148 13.8462 24.6149Z" fill="url(#paint2_linear_383_4845)"/>
<path d="M10.6838 6.71295C10.3254 6.43364 9.83683 6.41301 9.45753 6.62153C9.42806 6.38253 9.3188 6.15337 9.04996 5.94389C8.87074 5.80423 8.53193 5.68425 8.13299 5.73344C7.89362 5.76296 7.74387 5.8623 7.58429 5.88198C7.56464 5.72265 7.47503 5.65282 7.37559 5.50332C6.91771 5.07452 6.11981 5.1729 5.77981 5.70009C5.63987 5.8791 5.49994 6.05811 5.51959 6.21745C5.36001 6.23712 5.19061 6.17713 5.03103 6.19681C4.63208 6.246 4.41236 6.43485 4.20246 6.70337C3.85263 7.15089 3.93122 7.78822 3.93122 7.78822L4.30451 10.8155C4.03567 10.6061 3.58761 10.2569 3.02908 10.3258C2.8695 10.3455 2.63996 10.4547 2.4902 10.554C2.19069 10.7527 2.06058 11.0114 2.02009 11.3399C1.87895 12.166 2.73458 13.1928 2.74441 13.2725C2.83402 13.3423 3.96711 15.3054 4.87306 16.0834C5.78883 16.941 6.73527 17.3904 8.96937 17.1149C11.2833 16.8296 12.1633 15.4271 11.8195 12.6387L11.2793 8.25709C11.2694 8.17742 11.2313 7.21159 10.6838 6.71295ZM6.25614 6.9354C6.22667 6.6964 6.07811 6.14858 6.55685 6.08955C6.9558 6.04035 7.00491 6.43869 7.05403 6.83702L7.44696 10.0237C7.47643 10.2627 7.65566 10.4023 7.89502 10.3728C8.13439 10.3433 8.27432 10.1643 8.24485 9.92529L7.87157 6.89797C7.87157 6.89797 7.83227 6.5793 8.23122 6.53011C8.70996 6.47108 8.71858 7.19791 8.71858 7.19791L9.04275 9.82691C9.07222 10.0659 9.25144 10.2056 9.49081 10.176C9.73018 10.1465 9.87011 9.96752 9.84064 9.72852L9.60488 7.81653C9.59506 7.73686 9.54594 7.33853 9.94489 7.28934C10.3438 7.24014 10.4421 8.03681 10.4421 8.03681L11.0216 12.7371C11.3556 15.4458 10.3871 16.1314 8.87114 16.3183C6.9562 16.5544 6.18898 16.2446 5.44261 15.447C4.62627 14.7389 3.41339 12.7856 3.40357 12.7059C3.13473 12.4965 2.72716 11.8188 2.76766 11.4903C2.75784 11.4106 2.8278 11.3211 2.89777 11.2316C2.97756 11.2218 3.04752 11.1323 3.04752 11.1323C3.36668 11.0929 3.73496 11.4519 3.83439 11.6014L4.40154 12.2594C4.50097 12.4089 4.75016 12.459 4.89992 12.3597C5.21908 12.3203 5.27922 12.1512 5.25957 11.9918L4.74876 7.84917C4.70947 7.5305 4.65053 7.05251 5.04947 7.00331C5.36863 6.96396 5.47789 7.19312 5.52701 7.59145L5.85118 10.2204C5.88064 10.4594 6.05987 10.5991 6.29924 10.5696C6.53861 10.5401 6.67854 10.3611 6.64907 10.1221L6.25614 6.9354Z" fill="url(#paint3_linear_383_4845)"/>
<path fill-rule="evenodd" clip-rule="evenodd" d="M15.0003 13.8145H21.811C22.0049 13.8145 22.1636 13.9667 22.1636 14.1528V14.8293C22.1636 14.919 22.1264 15.005 22.0603 15.0684C21.9942 15.1319 21.9045 15.1675 21.811 15.1675L15.5051 15.1438C15.4116 15.1438 15.5231 15.0149 15.457 14.9515C15.3909 14.8881 15.3368 14.7768 15.3368 14.6871L15.2167 14.4708C15.2167 14.381 14.9342 14.1736 15.0003 14.1102C15.0664 14.0468 14.9068 13.8145 15.0003 13.8145ZM14.0548 11.1086H21.811C22.0049 11.1086 22.1636 11.2608 22.1636 11.4468V12.1233C22.1636 12.213 22.1264 12.299 22.0603 12.3625C21.9942 12.4259 21.9045 12.4615 21.811 12.4615L14.3513 12.489C14.2578 12.489 14.4655 12.4323 14.3994 12.3688C14.3332 12.3054 14.3513 12.2246 14.2792 12.1525L14.183 11.84C14.183 11.7503 13.8765 11.2063 13.9426 11.1429C14.0088 11.0795 13.9613 11.1086 14.0548 11.1086ZM17.5804 16.5205H21.811C22.0049 16.5205 22.1636 16.6727 22.1636 16.8587V17.5352C22.1636 17.6249 22.1264 17.711 22.0603 17.7744C21.9942 17.8378 21.9045 17.8735 21.811 17.8735H17.5804C17.4869 17.8735 17.3972 17.8378 17.3311 17.7744C17.265 17.711 17.2278 17.6249 17.2278 17.5352V16.8587C17.2278 16.769 17.265 16.683 17.3311 16.6196C17.3972 16.5561 17.4869 16.5205 17.5804 16.5205ZM14.0548 8.40259H21.811C22.0049 8.40259 22.1636 8.5548 22.1636 8.74083V9.41733C22.1636 9.50703 22.1264 9.59307 22.0603 9.6565C21.9942 9.71994 21.9045 9.75557 21.811 9.75557H14.0548C13.9613 9.75557 13.8716 9.71994 13.8055 9.6565C13.7394 9.59307 13.7023 9.50703 13.7023 9.41733V8.74083C13.7023 8.65113 13.7394 8.56509 13.8055 8.50166C13.8716 8.43822 13.9613 8.40259 14.0548 8.40259Z" fill="url(#paint4_linear_383_4845)"/>
<defs>
<linearGradient id="paint0_linear_383_4845" x1="17.9474" y1="10.484" x2="1.3514e-08" y2="10.484" gradientUnits="userSpaceOnUse">
<stop stop-color="#129AA3"/>
<stop offset="1" stop-color="#1BD5E1"/>
</linearGradient>
<linearGradient id="paint1_linear_383_4845" x1="24.6151" y1="14.5865" x2="11.7949" y2="14.5865" gradientUnits="userSpaceOnUse">
<stop stop-color="#129AA3"/>
<stop offset="1" stop-color="#1BD5E1"/>
</linearGradient>
<linearGradient id="paint2_linear_383_4845" x1="17.9495" y1="22.1074" x2="13.333" y2="22.1074" gradientUnits="userSpaceOnUse">
<stop stop-color="#129AA3"/>
<stop offset="1" stop-color="#1BD5E1"/>
</linearGradient>
<linearGradient id="paint3_linear_383_4845" x1="11.6027" y1="10.8394" x2="2.05397" y2="12.0169" gradientUnits="userSpaceOnUse">
<stop stop-color="#129AA3"/>
<stop offset="1" stop-color="#1BD5E1"/>
</linearGradient>
<linearGradient id="paint4_linear_383_4845" x1="13.7023" y1="13.2433" x2="22.1636" y2="13.2433" gradientUnits="userSpaceOnUse">
<stop stop-color="#129AA3"/>
<stop offset="1" stop-color="#1BD5E1"/>
</linearGradient>
</defs>
</svg>
