<svg width="18" height="23" viewBox="0 0 18 23" fill="none" xmlns="http://www.w3.org/2000/svg">
<path d="M3.30138 17.6073H14.306C15.1815 17.6073 16.0213 17.2595 16.6404 16.6404C17.2595 16.0213 17.6073 15.1815 17.6073 14.306V3.30138C17.6073 2.4258 17.2595 1.58608 16.6404 0.966951C16.0213 0.347823 15.1815 0 14.306 0H3.30138C2.4258 0 1.58608 0.347823 0.966951 0.966951C0.347823 1.58608 0 2.4258 0 3.30138V18.7078C0 19.5834 0.347823 20.4231 0.966951 21.0422C1.58608 21.6614 2.4258 22.0092 3.30138 22.0092H16.5069C16.7987 22.0092 17.0787 21.8932 17.285 21.6869C17.4914 21.4805 17.6073 21.2006 17.6073 20.9087C17.6073 20.6169 17.4914 20.337 17.285 20.1306C17.0787 19.9242 16.7987 19.8083 16.5069 19.8083H3.30138C3.00952 19.8083 2.72961 19.6923 2.52324 19.4859C2.31686 19.2796 2.20092 18.9997 2.20092 18.7078C2.20092 18.4159 2.31686 18.136 2.52324 17.9297C2.72961 17.7233 3.00952 17.6073 3.30138 17.6073ZM2.20092 3.30138C2.20092 3.00952 2.31686 2.72961 2.52324 2.52324C2.72961 2.31686 3.00952 2.20092 3.30138 2.20092H14.306C14.5978 2.20092 14.8777 2.31686 15.0841 2.52324C15.2905 2.72961 15.4064 3.00952 15.4064 3.30138V14.306C15.4064 14.5978 15.2905 14.8777 15.0841 15.0841C14.8777 15.2905 14.5978 15.4064 14.306 15.4064H3.30138C2.92653 15.4062 2.55439 15.4699 2.20092 15.5946V3.30138Z" fill="url(#paint0_linear_383_5179)"/>
<path d="M8.80407 13.2055C9.09593 13.2055 9.37584 13.0895 9.58221 12.8832C9.78859 12.6768 9.90453 12.3969 9.90453 12.105V8.80365C9.90453 8.51179 9.78859 8.23188 9.58221 8.0255C9.37584 7.81913 9.09593 7.70319 8.80407 7.70319C8.51221 7.70319 8.23231 7.81913 8.02593 8.0255C7.81955 8.23188 7.70361 8.51179 7.70361 8.80365V12.105C7.70361 12.3969 7.81955 12.6768 8.02593 12.8832C8.23231 13.0895 8.51221 13.2055 8.80407 13.2055Z" fill="url(#paint1_linear_383_5179)"/>
<path d="M8.80407 6.60222C9.41184 6.60222 9.90453 6.10953 9.90453 5.50177C9.90453 4.894 9.41184 4.40131 8.80407 4.40131C8.19631 4.40131 7.70361 4.894 7.70361 5.50177C7.70361 6.10953 8.19631 6.60222 8.80407 6.60222Z" fill="url(#paint2_linear_383_5179)"/>
<defs>
<linearGradient id="paint0_linear_383_5179" x1="17.6073" y1="11.2491" x2="1.3258e-08" y2="11.2491" gradientUnits="userSpaceOnUse">
<stop stop-color="#129AA3"/>
<stop offset="1" stop-color="#1BD5E1"/>
</linearGradient>
<linearGradient id="paint1_linear_383_5179" x1="9.90453" y1="10.5155" x2="7.70361" y2="10.5155" gradientUnits="userSpaceOnUse">
<stop stop-color="#129AA3"/>
<stop offset="1" stop-color="#1BD5E1"/>
</linearGradient>
<linearGradient id="paint2_linear_383_5179" x1="9.90453" y1="5.52622" x2="7.70361" y2="5.52622" gradientUnits="userSpaceOnUse">
<stop stop-color="#129AA3"/>
<stop offset="1" stop-color="#1BD5E1"/>
</linearGradient>
</defs>
</svg>
