<svg width="29" height="22" viewBox="0 0 29 22" fill="none" xmlns="http://www.w3.org/2000/svg">
<path fill-rule="evenodd" clip-rule="evenodd" d="M17.171 0.163696C17.9649 0.163696 18.6754 0.65654 18.9536 1.40015C19.2317 2.14377 19.9422 2.63661 20.7361 2.63661H24.1416C26.3841 2.63661 28.202 4.45455 28.202 6.69709V17.8638C28.202 20.1063 26.3841 21.9242 24.1416 21.9242H4.51801C2.27546 21.9242 0.45752 20.1063 0.45752 17.8638V6.69709C0.45752 4.45455 2.27546 2.63661 4.518 2.63661H7.92279C8.71671 2.63661 9.42722 2.14377 9.70533 1.40015C9.98344 0.65654 10.694 0.163696 11.4879 0.163696H17.171ZM14.5608 16.9786C17.2423 16.9786 19.4161 14.6537 19.4161 11.7858C19.4161 8.91787 17.2423 6.59296 14.5608 6.59296C11.8793 6.59296 9.70552 8.91787 9.70552 11.7858C9.70552 14.6537 11.8793 16.9786 14.5608 16.9786Z" fill="url(#paint0_linear_382_2362)"/>
<defs>
<linearGradient id="paint0_linear_382_2362" x1="28.202" y1="11.2857" x2="0.45752" y2="11.2857" gradientUnits="userSpaceOnUse">
<stop stop-color="#129AA3"/>
<stop offset="1" stop-color="#1BD5E1"/>
</linearGradient>
</defs>
</svg>
